<?xml version="1.0" encoding="utf-8"?>
<!-- Generator: Adobe Illustrator 23.0.3, SVG Export Plug-In . SVG Version: 6.00 Build 0)  -->
<svg version="1.1" id="Layer_1" xmlns="http://www.w3.org/2000/svg" xmlns:xlink="http://www.w3.org/1999/xlink" x="0px" y="0px"
	 viewBox="0 0 26.8 34.9" style="enable-background:new 0 0 26.8 34.9;" xml:space="preserve">
<style type="text/css">
	.st0{fill:#FFCE00;}
</style>
<path class="st0" d="M25.8,15.9c-0.2-0.4-0.5-0.8-0.7-1.2l-0.2-0.3c-0.1-0.2-0.2-0.2-0.4-0.2l-0.2,0c-0.4,0-0.7,0-1.1,0
	c-0.4,0-0.7,0-1.1,0c-0.3,0-0.4,0.2-0.4,0.5c0,0.1,0,0.3,0,0.4l0,0.3c0,0,0,0.1,0,0.1l0,0l0,0.2h-0.2h-0.5h-0.2v-0.2l0-0.3
	c0-0.2,0-0.4,0-0.6c0-0.3-0.2-0.5-0.5-0.5l-0.2,0l-0.2,0l-0.2,0c-0.2,0-0.3,0-0.5,0c-0.1,0-0.3-0.1-0.3-0.2
	c-0.2-0.3-0.4-0.6-0.6-0.9c-0.2-0.2-0.3-0.4-0.5-0.7c-0.1-0.2-0.3-0.4-0.4-0.5c-0.1-0.1-0.3-0.2-0.5-0.2c-0.3,0-0.6,0-1,0l-1.1,0
	l-0.7,0c0,0-0.1,0-0.1,0l-0.1,0l-0.2,0v-0.2v-0.6v-0.2h0.2H14h0.1h0.1l0.8,0l0.8,0l1.3,0c0.3,0,0.5-0.2,0.5-0.5c0-0.5,0-0.9,0-1.4
	c0-0.3-0.2-0.5-0.5-0.5l-4.9,0l-4.7,0C7,8.4,6.8,8.6,6.8,8.9c0,0.4,0,0.8,0,1.2l0,0.1c0,0.4,0.2,0.5,0.5,0.5l1.7,0l1.8,0
	c0,0,0.1,0,0.1,0l0.1,0l0.2,0v0.2v0.6v0.2H11H11l-0.1,0l-0.1,0l-0.6,0l-2.8,0h0l0,0c0,0,0,0,0,0c-0.1,0-0.1,0-0.2,0
	c-0.2,0-0.4,0.2-0.4,0.4c0,0.2,0,0.4,0,0.5l0,0.3c0,0,0,0.1,0,0.1l0,0.1l0,0.2H6.6H6.5l-0.5,0H5.5l-0.6,0c-0.4,0-0.6,0.1-0.6,0.6
	l0,0.6l0,0.9c0,0,0,0.1,0,0.1l0,0.1l0,0.2H4.1H3.5H3.3v-0.2v-0.1v-0.1l0-0.5c0-0.4,0-0.7,0-1.1c0-0.3-0.2-0.5-0.5-0.5l-0.6,0l-0.7,0
	c-0.3,0-0.5,0.2-0.5,0.5l0,8.4c0,0.3,0.2,0.5,0.5,0.5l0.5,0l0.5,0l0.2,0c0.4,0,0.5-0.2,0.5-0.5l0-2.6l0-1v-0.2v-0.2h0.2h0.6h0.2v0.2
	v0.2l0,1l0,2.6c0,0.4,0.2,0.5,0.5,0.5l0.1,0l1.2,0c0.5,0,1.1,0,1.6,0c0.1,0,0.3,0,0.4,0.2c0.3,0.5,0.7,1,1.1,1.5
	c0.1,0.2,0.2,0.3,0.4,0.5c0.1,0.2,0.3,0.3,0.5,0.3c0.3,0,0.7,0,1,0l0.1,0c0.3,0,0.6,0,0.9,0c0.3,0,0.7,0,1,0c1.1,0,2.2,0,3.3,0
	l1.8,0l1.8,0h0.3c0.4,0,0.5-0.2,0.5-0.5l0-1.7l0-0.7v-0.2v-0.2h0.2h0.5h0.2v0.2l0,0.3l0,0.6c0,0.3,0.2,0.5,0.5,0.5l0.8,0l0.4,0
	l0.4,0l0.2,0l0.2,0c0.1,0,0.2,0,0.3,0c0.2,0,0.3-0.1,0.4-0.3c0.1-0.2,0.2-0.4,0.4-0.6c0.2-0.3,0.3-0.5,0.5-0.8
	c0.1-0.1,0.1-0.2,0.1-0.3c0-0.2,0-0.4,0-0.7c0-0.1,0-0.2,0-0.3c0-1.3,0-2.6,0-3.9C25.9,16.3,25.9,16.1,25.8,15.9z M25,21.1
	c0,0.2-0.1,0.3-0.1,0.4c-0.2,0.3-0.4,0.6-0.5,0.9c0,0.1-0.1,0.2-0.3,0.2c-0.3,0-0.5,0-0.8,0l-0.3,0l-0.3,0h-0.2v-0.2v-0.2l0-0.3
	l0-0.1c0-0.1,0-0.2,0-0.3c0-0.3-0.2-0.5-0.5-0.5c-0.3,0-0.6,0-0.9,0c-0.3,0-0.6,0-0.9,0c-0.3,0-0.5,0.2-0.5,0.5c0,0.6,0,1.1,0,1.7
	l0,0.7V24v0.1v0.2h-0.2h-0.2h-1.4l-1.4,0c-2.1,0-4.2,0-6.3,0c-0.1,0-0.3,0-0.4-0.2c-0.1-0.2-0.3-0.4-0.4-0.6c-0.2-0.3-0.5-0.7-0.7-1
	c-0.3-0.5-0.7-0.7-1.2-0.7c0,0-0.1,0-0.2,0c-0.5,0-1,0-1.4,0c-0.2,0-0.4,0-0.6,0l-0.1,0l-0.1,0l-0.1,0H5.2v-0.2v-0.2v-1.1l0-2.6
	c0-0.4-0.2-0.6-0.6-0.6l-0.4,0l-0.6,0l-0.7,0c-0.3,0-0.5,0.2-0.5,0.5l0,2.3l0,1.3c0,0.1,0,0.1,0,0.2c0,0.1-0.1,0.2-0.2,0.2
	c-0.1,0-0.2-0.1-0.2-0.2c0-0.1,0-0.1,0-0.1l0-6.9c0-0.1,0-0.1,0-0.2c0-0.1,0.1-0.2,0.2-0.2c0.1,0,0.2,0.1,0.2,0.2c0,0.1,0,0.1,0,0.2
	l0,0.6l0,1c0,0.3,0.2,0.5,0.5,0.5l0.9,0l0.9,0c0.3,0,0.5-0.2,0.5-0.5c0-0.4,0-0.7,0-1.1l0-0.5v-0.1v-0.1v-0.2h0.2h0.2l0.5,0l0.5,0
	l0.6,0c0.4,0,0.6-0.2,0.6-0.5l0-0.6l0-0.3v-0.2h0.2H8H8l0.1,0l1,0l2.5,0c0.4,0,0.5-0.2,0.5-0.5c0-0.6,0-1.1,0-1.7
	c0-0.3-0.2-0.5-0.5-0.5l-1.5,0l-1,0l-1,0H7.9H7.7V9.6V9.5V9.3h0.2h8.4h0.2v0.2v0.2v0.2h-0.2h-0.2l-0.8,0l-0.8,0l-1.2,0
	c-0.4,0-0.5,0.2-0.5,0.5V12c0,0.4,0.2,0.5,0.5,0.5l0.6,0l1.5,0l1.1,0c0.2,0,0.3,0.1,0.4,0.2c0.2,0.2,0.3,0.4,0.5,0.7
	c0.3,0.3,0.5,0.7,0.7,1c0.3,0.4,0.6,0.6,1.1,0.6l0.2,0l0.1,0l0.2,0h0.2v0.2l0,0.3l0,0.6c0,0.4,0.2,0.5,0.5,0.5l0.9,0l0.8,0
	c0.3,0,0.5-0.2,0.5-0.5l0-0.6l0-0.3V15h0.2h0.5h0.2l0.2,0l0.2,0c0.1,0,0.2,0,0.2,0c0,0,0,0,0,0c0.2,0,0.3,0.1,0.4,0.2
	c0.1,0.1,0.2,0.3,0.3,0.4c0.1,0.2,0.2,0.3,0.3,0.5c0.1,0.1,0.1,0.2,0.1,0.3C25,18,25,19.6,25,21.1z"/>
</svg>
