<?xml version="1.0" encoding="utf-8"?>
<!-- Generator: Adobe Illustrator 23.0.3, SVG Export Plug-In . SVG Version: 6.00 Build 0)  -->
<svg version="1.1" id="Layer_1" xmlns="http://www.w3.org/2000/svg" xmlns:xlink="http://www.w3.org/1999/xlink" x="0px" y="0px"
	 viewBox="0 0 35.2 34.8" style="enable-background:new 0 0 35.2 34.8;" xml:space="preserve">
<style type="text/css">
	.st0{fill:#CE00FF;}
	.st1{fill:#FFCE00;}
</style>
<g>
	<path class="st0" d="M-31.7,26.1c-0.7-0.1-1.2-0.8-1.1-1.5s0.8-1.2,1.5-1.1c0.7,0.1,1.1,0.7,1.1,1.3c0,0.4,0.3,0.7,0.7,0.7
		s0.7-0.3,0.7-0.7l0,0c0-1.3-1-2.4-2.2-2.6v-0.4c0-0.4-0.3-0.7-0.7-0.7s-0.7,0.3-0.7,0.7v0.4c-1.3,0.3-2.2,1.3-2.2,2.6
		c0.1,1.5,1.4,2.7,2.9,2.7c0.7,0.1,1.2,0.8,1.1,1.5s-0.8,1.2-1.5,1.1c-0.7-0.1-1.1-0.7-1.1-1.3c0-0.4-0.3-0.7-0.7-0.7
		s-0.7,0.3-0.7,0.7c0,1.3,1,2.4,2.2,2.6v0.3c0,0.4,0.3,0.7,0.7,0.7s0.7-0.3,0.7-0.7l0,0v-0.3c1.3-0.3,2.2-1.3,2.2-2.6
		C-28.8,27.2-30.1,26-31.7,26.1z"/>
	<path class="st0" d="M-31.7,32.3c-0.3,0-0.6-0.3-0.6-0.6v-0.4l-0.1,0c-1.2-0.2-2.1-1.3-2.1-2.5c0-0.3,0.2-0.6,0.6-0.6
		s0.6,0.2,0.6,0.6c0,0,0,0,0,0c-0.1,0.9,0.5,1.7,1.4,1.8s1.7-0.5,1.8-1.4c0.1-0.9-0.5-1.7-1.4-1.8c-0.1,0-0.1,0-0.2,0
		c-1.5,0.1-2.8-1.1-2.8-2.6c0-1.2,0.9-2.3,2.1-2.5l0.1,0v-0.4c0-0.3,0.2-0.6,0.6-0.6s0.6,0.2,0.6,0.6c0,0,0,0,0,0v0.4l0.1,0
		c1.2,0.2,2.1,1.3,2.1,2.5c0,0.3-0.2,0.6-0.6,0.6s-0.6-0.2-0.6-0.6c0,0,0,0,0,0c0.1-0.9-0.5-1.7-1.4-1.8s-1.7,0.5-1.8,1.4
		c-0.1,0.9,0.5,1.7,1.4,1.8c0.1,0,0.1,0,0.2,0c1.5-0.1,2.8,1.1,2.8,2.6c0,1.2-0.9,2.3-2.1,2.5l-0.1,0v0.4
		C-31.1,32-31.3,32.3-31.7,32.3z"/>
	<path class="st0" d="M-24.1,22c-0.9-1.4-2.2-2.5-3.7-3.3c-0.3-0.2-0.8,0-0.9,0.3c-0.2,0.3,0,0.8,0.3,0.9c3.8,1.8,5.4,6.4,3.6,10.1
		c0,0.1-0.1,0.2-0.1,0.3c-0.2,0.3-0.1,0.8,0.3,0.9c0.3,0.2,0.8,0.1,0.9-0.3c0,0,0,0,0,0C-22.2,28.2-22.4,24.7-24.1,22L-24.1,22z"/>
	<path class="st0" d="M-24.3,31.3c-0.3,0-0.6-0.3-0.6-0.6c0-0.1,0-0.2,0.1-0.3c2-3.7,0.6-8.4-3.2-10.4c-0.1,0-0.2-0.1-0.3-0.1
		c-0.3-0.1-0.4-0.5-0.3-0.8c0.1-0.2,0.3-0.3,0.5-0.3c0.1,0,0.2,0,0.3,0.1c4.4,2.1,6.3,7.4,4.2,11.9c-0.1,0.1-0.1,0.2-0.2,0.3
		C-23.9,31.2-24.1,31.3-24.3,31.3z"/>
	<path class="st0" d="M-30.6,17.8L-30.6,17.8c-0.4,0-0.7,0.3-0.7,0.7s0.3,0.7,0.7,0.7h0c0.4,0,0.7-0.3,0.7-0.7S-30.2,17.8-30.6,17.8
		L-30.6,17.8z"/>
	<path class="st0" d="M-30.6,19.1c-0.3,0-0.6-0.2-0.6-0.6c0-0.3,0.2-0.6,0.6-0.6c0,0,0,0,0,0h0c0.3,0,0.6,0.3,0.6,0.6
		C-30,18.9-30.3,19.1-30.6,19.1L-30.6,19.1z"/>
	<path class="st0" d="M-34.9,33.6c-3.8-1.8-5.4-6.4-3.5-10.1c0-0.1,0.1-0.2,0.1-0.3c0.2-0.3,0.1-0.8-0.3-0.9
		c-0.3-0.2-0.8-0.1-0.9,0.3c0,0,0,0,0,0c-2.3,4.4-0.7,9.8,3.7,12.1c0.1,0.1,0.2,0.1,0.3,0.2c0.3,0.2,0.8,0,0.9-0.3
		C-34.5,34.2-34.6,33.8-34.9,33.6L-34.9,33.6L-34.9,33.6z"/>
	<path class="st0" d="M-35.2,34.9c-0.1,0-0.2,0-0.3-0.1c-4.4-2.1-6.3-7.4-4.2-11.9c0.1-0.1,0.1-0.2,0.2-0.3c0.1-0.3,0.5-0.4,0.8-0.3
		c0.3,0.1,0.4,0.5,0.3,0.8c0,0,0,0,0,0c-2,3.7-0.6,8.4,3.2,10.4c0.1,0,0.2,0.1,0.3,0.1c0.3,0.1,0.4,0.5,0.3,0.8
		C-34.8,34.7-35,34.9-35.2,34.9L-35.2,34.9z"/>
	<path class="st0" d="M-32.7,34.4L-32.7,34.4c-0.4,0-0.7,0.3-0.7,0.7s0.3,0.7,0.7,0.7h0c0.4,0,0.7-0.3,0.7-0.7S-32.3,34.4-32.7,34.4
		L-32.7,34.4z"/>
	<path class="st0" d="M-32.7,35.7c-0.3,0-0.6-0.3-0.6-0.6c0-0.3,0.3-0.6,0.6-0.6h0c0.3,0,0.6,0.2,0.6,0.6S-32.3,35.7-32.7,35.7
		C-32.7,35.7-32.7,35.7-32.7,35.7L-32.7,35.7z"/>
	<path class="st0" d="M-31.7,38.5c-3.2,0-6.3-1.3-8.5-3.7l0,0h-8.2c-1.7,0-3.1-1.4-3.1-3.1c0-0.9,0.4-1.8,1.2-2.4l0.1-0.1l-0.1-0.1
		c-1.3-1.1-1.6-3-0.5-4.3c0.1-0.2,0.3-0.4,0.5-0.5l0.1-0.1l-0.1-0.1c-1.3-1.1-1.6-3-0.5-4.3c0.1-0.2,0.3-0.4,0.5-0.5l0.1-0.1
		l-0.1-0.1c-1.3-1.1-1.6-3-0.5-4.3c0.6-0.7,1.5-1.2,2.4-1.2h2l-0.1-0.1c-0.7-1.1-0.7-2.4,0-3.5l0.1-0.1h-5.7c-1.7,0-3.1-1.4-3.1-3.1
		c0-1.7,1.4-3.1,3.1-3.1l0,0h16.9c1.7,0,3.1,1.4,3.1,3.1c0,0.6-0.2,1.2-0.5,1.8l-0.1,0.1h5.7c1.7,0,3.1,1.4,3.1,3.1
		c0,1.7-1.4,3.1-3.1,3.1h-2l0.1,0.1c0.1,0.2,0.2,0.4,0.3,0.5l0,0l0,0c6.2,1.7,9.8,8.1,8.1,14.3C-21.8,35-26.4,38.5-31.7,38.5
		L-31.7,38.5z M-31.7,16.4c-5.8,0-10.4,4.7-10.4,10.4s4.7,10.4,10.4,10.4c5.8,0,10.4-4.7,10.4-10.4C-21.2,21-25.9,16.4-31.7,16.4
		L-31.7,16.4z M-48.4,29.8c-1,0-1.9,0.8-1.9,1.8c0,1,0.8,1.9,1.8,1.9c0,0,0.1,0,0.1,0h7.2l-0.1-0.1c-0.7-1.1-1.3-2.3-1.6-3.6l0-0.1
		H-48.4z M-48.4,24.8c-1,0-1.9,0.8-1.9,1.8c0,1,0.8,1.9,1.8,1.9c0,0,0.1,0,0.1,0h5.2l0-0.1c-0.2-1.2-0.2-2.4,0-3.6l0-0.1L-48.4,24.8
		z M-48.4,19.8c-1,0-1.9,0.8-1.9,1.8c0,1,0.8,1.9,1.8,1.9c0,0,0.1,0,0.1,0h5.5l0-0.1c0.4-1.3,1-2.5,1.8-3.6l0.1-0.1H-48.4z
		 M-48.4,14.9c-1,0-1.9,0.8-1.9,1.8c0,1,0.8,1.9,1.8,1.9c0,0,0.1,0,0.1,0h8.4l0,0c2.2-2.2,5.1-3.4,8.2-3.4c0.3,0,0.7,0,1,0l0-0.2
		c-0.3-0.1-0.5-0.2-0.8-0.2L-48.4,14.9z M-43.9,9.9c-1,0-1.9,0.9-1.8,1.9c0,1,0.8,1.8,1.8,1.8H-27c1,0,1.9-0.9,1.8-1.9
		c0-1-0.8-1.8-1.8-1.8H-43.9z M-52.1,4.9c-1,0-1.9,0.8-1.9,1.8c0,1,0.8,1.9,1.8,1.9c0,0,0.1,0,0.1,0h16.9c1,0,1.9-0.9,1.8-1.9
		c0-1-0.8-1.8-1.8-1.8H-52.1z"/>
</g>
<path class="st1" d="M33.8,16.5c-0.3-0.5-0.6-1.1-0.9-1.6l-0.3-0.4c-0.1-0.2-0.3-0.3-0.5-0.3l-0.3,0c-0.5,0-1,0-1.5,0
	c-0.5,0-1,0-1.4,0c-0.3,0-0.6,0.2-0.6,0.6c0,0.2,0,0.4,0,0.6l0,0.4c0,0.1,0,0.1,0,0.2l0,0.1l0,0.2h-0.2h-0.7h-0.2V16l0-0.4
	c0-0.3,0-0.5,0-0.8c0-0.4-0.2-0.7-0.7-0.7l-0.2,0l-0.3,0l-0.3,0c-0.2,0-0.4,0-0.6,0c-0.1,0-0.3-0.1-0.4-0.2
	c-0.3-0.4-0.6-0.8-0.8-1.2c-0.2-0.3-0.4-0.6-0.6-0.9c-0.2-0.3-0.3-0.5-0.5-0.7C22.5,11,22.3,11,22,11c-0.4,0-0.9,0-1.3,0l-1.5,0
	l-0.9,0c-0.1,0-0.1,0-0.2,0l-0.1,0l-0.2,0v-0.2V9.9V9.7h0.2h0.2h0.1h0.1l1,0l1,0l1.7,0c0.4,0,0.6-0.2,0.6-0.6c0-0.6,0-1.2,0-1.8
	c0-0.4-0.2-0.7-0.6-0.7l-6.4,0l-6.2,0c-0.4,0-0.7,0.2-0.7,0.7c0,0.5,0,1.1,0,1.6l0,0.1c0,0.5,0.2,0.7,0.7,0.7l2.2,0l2.4,0
	c0.1,0,0.1,0,0.2,0l0.1,0l0.2,0v0.2v0.8v0.2h-0.2h-0.1l-0.1,0l-0.1,0l-0.8,0l-3.7,0h0l-0.1,0c0,0,0,0,0,0c-0.1,0-0.2,0-0.2,0
	c-0.3,0-0.5,0.3-0.5,0.6c0,0.2,0,0.5,0,0.7l0,0.4c0,0.1,0,0.1,0,0.2l0,0.1l0,0.2H8.6H8.3l-0.6,0H7l-0.8,0c-0.5,0-0.7,0.2-0.7,0.7
	l0,0.8l0,1.2c0,0.1,0,0.1,0,0.2l0,0.1l0,0.2H5.2H4.5H4.2V16V16v-0.2l0-0.6c0-0.5,0-0.9,0-1.4c0-0.4-0.2-0.6-0.7-0.6l-0.8,0l-0.9,0
	c-0.4,0-0.7,0.2-0.7,0.7l0,11.1c0,0.4,0.2,0.6,0.6,0.7l0.7,0l0.7,0l0.3,0c0.5,0,0.7-0.2,0.7-0.7l0-3.4l0-1.4v-0.3v-0.2h0.2h0.8h0.2
	v0.2V20l0,1.4l0,3.4c0,0.5,0.2,0.7,0.7,0.7l0.1,0l1.6,0c0.7,0,1.4,0,2.1,0c0.1,0,0.4,0,0.5,0.2c0.5,0.7,0.9,1.3,1.4,2
	c0.2,0.2,0.3,0.4,0.5,0.7c0.2,0.2,0.4,0.3,0.7,0.4c0.5,0,0.9,0.1,1.3,0.1l0.1,0c0.4,0,0.8,0,1.1,0c0.5,0,0.9,0,1.4,0
	c1.4,0,2.9,0,4.3,0l2.4,0l2.4,0h0.4c0.5,0,0.7-0.2,0.7-0.7l0-2.2l0-0.9v-0.3v-0.2h0.2h0.7h0.2v0.2l0,0.4l0,0.8
	c0,0.4,0.2,0.7,0.7,0.7l1,0l0.6,0l0.5,0l0.3,0l0.3,0c0.1,0,0.3,0,0.4,0c0.3,0,0.5-0.1,0.6-0.4c0.2-0.3,0.3-0.5,0.5-0.8
	c0.2-0.3,0.4-0.7,0.6-1c0.1-0.2,0.2-0.3,0.2-0.5c0-0.3,0-0.6,0-0.9c0-0.1,0-0.3,0-0.4c0-1.7,0-3.4,0-5.1C34,17.1,34,16.8,33.8,16.5z
	 M32.8,23.4c0,0.2-0.1,0.4-0.1,0.5c-0.2,0.4-0.5,0.8-0.7,1.2c0,0.1-0.2,0.3-0.4,0.3c-0.3,0-0.7,0-1,0l-0.4,0l-0.4,0h-0.2v-0.2v-0.2
	l0-0.5l0-0.2c0-0.1,0-0.3,0-0.4c0-0.4-0.2-0.6-0.6-0.6c-0.4,0-0.8,0-1.1,0c-0.4,0-0.8,0-1.1,0c-0.4,0-0.6,0.2-0.6,0.6
	c0,0.8,0,1.5,0,2.3l0,0.9v0.2v0.1v0.2h-0.2h-0.3h-1.8l-1.8,0c-2.8,0-5.5,0-8.3,0c-0.2,0-0.4,0-0.6-0.3c-0.2-0.2-0.3-0.5-0.5-0.7
	c-0.3-0.4-0.6-0.9-0.9-1.3c-0.4-0.7-0.9-1-1.6-1c-0.1,0-0.1,0-0.2,0c-0.6,0-1.3,0.1-1.9,0.1c-0.3,0-0.5,0-0.8,0l-0.1,0l-0.1,0
	l-0.1,0H6.6v-0.2v-0.3v-1.4l0-3.4c0-0.5-0.2-0.8-0.8-0.8l-0.5,0l-0.8,0l-0.9,0C3.3,18.3,3,18.5,3,19l0,3.1l0,1.8c0,0.1,0,0.2,0,0.2
	c0,0.1-0.2,0.3-0.3,0.3c-0.1,0-0.3-0.1-0.3-0.2c0-0.1,0-0.1,0-0.2l0-9.1c0-0.1,0-0.1,0-0.2c0-0.1,0.2-0.2,0.3-0.2
	c0.1,0,0.3,0.1,0.3,0.2c0,0.1,0,0.1,0,0.2l0,0.7l0,1.3c0,0.4,0.2,0.7,0.7,0.7l1.2,0l1.1,0c0.4,0,0.7-0.2,0.7-0.6c0-0.5,0-0.9,0-1.4
	l0-0.6v-0.2v-0.1v-0.2h0.2h0.2l0.7,0l0.6,0l0.8,0c0.5,0,0.7-0.2,0.7-0.7l0-0.8l0-0.4v-0.2h0.2h0.1h0.1l0.1,0l1.3,0l3.3,0
	c0.5,0,0.7-0.2,0.7-0.7c0-0.7,0-1.5,0-2.2c0-0.4-0.2-0.7-0.7-0.7l-2,0l-1.3,0l-1.3,0h-0.3H10V8.3V8V7.8h0.2h11.1h0.2V8v0.2v0.2h-0.2
	h-0.3l-1.1,0l-1.1,0l-1.6,0c-0.5,0-0.7,0.2-0.7,0.7v2.2c0,0.5,0.2,0.7,0.7,0.7l0.8,0l2,0l1.5,0c0.2,0,0.4,0.1,0.5,0.3
	c0.2,0.3,0.4,0.6,0.6,0.9c0.3,0.5,0.7,0.9,1,1.4c0.3,0.5,0.8,0.7,1.4,0.8l0.2,0l0.2,0l0.2,0H26v0.2l0,0.4l0,0.8
	c0,0.5,0.2,0.7,0.7,0.7l1.1,0l1,0c0.4,0,0.7-0.2,0.7-0.7l0-0.8l0-0.4v-0.2h0.2h0.6h0.3l0.2,0l0.2,0c0.1,0,0.2,0,0.3,0c0,0,0,0,0,0
	c0.2,0,0.4,0.1,0.5,0.3c0.1,0.2,0.2,0.4,0.3,0.6c0.1,0.2,0.3,0.4,0.4,0.6c0.1,0.1,0.1,0.3,0.1,0.4C32.8,19.3,32.8,21.4,32.8,23.4z"
	/>
</svg>
